<?xml version="1.0" encoding="iso-8859-1"?>
<!-- Generator: Adobe Illustrator 19.0.0, SVG Export Plug-In . SVG Version: 6.00 Build 0)  -->
<svg version="1.1" id="Layer_1" xmlns="http://www.w3.org/2000/svg" xmlns:xlink="http://www.w3.org/1999/xlink" x="0px" y="0px"
	 viewBox="0 0 512.175 512.175" style="enable-background:new 0 0 512.175 512.175;" xml:space="preserve">
<g transform="translate(1 1)">
	<polygon style="fill:#E0E0E0;" points="209.461,76.802 8.318,12.802 8.318,433.373 209.461,497.373 	"/>
	<polygon style="fill:#EEEEEE;" points="136.318,58.516 8.318,12.802 8.318,433.373 136.318,479.088 	"/>
	<polygon style="fill:#F0F0F0;" points="182.032,76.802 35.747,12.802 35.747,433.373 182.032,497.373 	"/>
	<g>
		<path style="fill:#E2E3E5;" d="M392.318,351.088c-2.743,0-4.571-0.914-6.4-2.743c-3.657-3.657-3.657-9.143,0-12.8L495.632,225.83
			c3.657-3.657,9.143-3.657,12.8,0c3.657,3.657,3.657,9.143,0,12.8L398.718,348.345
			C396.889,350.173,395.061,351.088,392.318,351.088z"/>
		<path style="fill:#E2E3E5;" d="M502.032,241.373c-2.743,0-5.486-0.914-7.314-2.743l-109.714-128
			c-3.657-3.657-2.743-10.057,0.914-12.8c3.657-3.657,10.057-2.743,12.8,0.914l109.714,128c3.657,3.657,2.743,10.057-0.914,12.8
			C506.604,240.459,503.861,241.373,502.032,241.373z"/>
		<path style="fill:#E2E3E5;" d="M502.032,241.373H328.318c-5.486,0-9.143-3.657-9.143-9.143s3.657-9.143,9.143-9.143h173.714
			c5.486,0,9.143,3.657,9.143,9.143S507.518,241.373,502.032,241.373z"/>
		<polygon style="fill:#E2E3E5;" points="35.747,12.802 236.889,76.802 236.889,433.373 236.889,433.373 346.604,433.373 
			346.604,277.945 346.604,168.23 346.604,12.802 		"/>
	</g>
	<polygon style="fill:#CCCCCC;" points="8.318,12.802 209.461,76.802 209.461,433.373 209.461,433.373 319.175,433.373 
		319.175,277.945 319.175,168.23 319.175,12.802 	"/>
	<polygon style="fill:#E2E3E5;" points="8.318,12.802 209.461,76.802 209.461,433.373 209.461,433.373 291.747,433.373 
		291.747,277.945 291.747,168.23 291.747,12.802 	"/>
	<g>
		<path style="fill:#B6B6B6;" d="M383.175,341.945c-2.743,0-4.571-0.914-6.4-2.743c-3.657-3.657-3.657-9.143,0-12.8l109.714-109.714
			c3.657-3.657,9.143-3.657,12.8,0c3.657,3.657,3.657,9.143,0,12.8L389.575,339.202C387.747,341.03,385.918,341.945,383.175,341.945
			z"/>
		<path style="fill:#B6B6B6;" d="M492.889,232.23c-2.743,0-4.571-0.914-6.4-2.743L376.775,119.773c-3.657-3.657-3.657-9.143,0-12.8
			c3.657-3.657,9.143-3.657,12.8,0l109.714,109.714c3.657,3.657,3.657,9.143,0,12.8C497.461,231.316,495.632,232.23,492.889,232.23z
			"/>
		<path style="fill:#B6B6B6;" d="M492.889,232.23H319.175c-5.486,0-9.143-3.657-9.143-9.143c0-5.486,3.657-9.143,9.143-9.143
			h173.714c5.486,0,9.143,3.657,9.143,9.143C502.032,228.573,498.375,232.23,492.889,232.23z"/>
		<path style="fill:#B6B6B6;" d="M209.461,506.516c-0.914,0-1.829,0-2.743,0l-201.143-64c-3.657-1.829-6.4-5.486-6.4-9.143V12.802
			c0-2.743,1.829-5.486,3.657-7.314c2.743-1.829,5.486-1.829,8.229-1.829l201.143,64c3.657,1.829,6.4,5.486,6.4,9.143v420.571
			c0,2.743-1.829,5.486-3.657,7.314C213.118,505.602,211.289,506.516,209.461,506.516z M17.461,426.973l182.857,58.514V83.202
			l-182.857-57.6V426.973z"/>
		<path style="fill:#B6B6B6;" d="M182.032,305.373c-0.914,0-1.829,0-3.657-0.914l-45.714-18.286
			c-4.571-1.829-7.314-7.314-5.486-11.886c1.829-4.571,7.314-7.314,11.886-5.486l45.714,18.286
			c4.571,1.829,7.314,7.314,5.486,11.886C189.347,303.545,185.689,305.373,182.032,305.373z"/>
		<path style="fill:#B6B6B6;" d="M319.175,442.516H209.461c-5.486,0-9.143-3.657-9.143-9.143V83.202L5.575,21.945
			c-4.571-1.829-7.314-6.4-6.4-10.971s4.571-7.314,9.143-7.314h310.857c5.486,0,9.143,3.657,9.143,9.143v420.571
			C328.318,438.859,324.661,442.516,319.175,442.516z M218.604,424.23h91.429V21.945h-243.2l145.371,45.714
			c3.657,1.829,6.4,5.486,6.4,9.143V424.23z"/>
	</g>
</g>
<g>
</g>
<g>
</g>
<g>
</g>
<g>
</g>
<g>
</g>
<g>
</g>
<g>
</g>
<g>
</g>
<g>
</g>
<g>
</g>
<g>
</g>
<g>
</g>
<g>
</g>
<g>
</g>
<g>
</g>
</svg>
