<?xml version="1.0" encoding="iso-8859-1"?>
<!-- Generator: Adobe Illustrator 19.0.0, SVG Export Plug-In . SVG Version: 6.00 Build 0)  -->
<svg version="1.1" id="Layer_1" xmlns="http://www.w3.org/2000/svg" xmlns:xlink="http://www.w3.org/1999/xlink" x="0px" y="0px"
	 viewBox="0 0 512 512" style="enable-background:new 0 0 512 512;" xml:space="preserve">
<g transform="translate(1 1)">
	<path style="fill:#E2E3E5;" d="M457.868,124.585H264.66V91.74c0-14.491,10.626-25.117,25.117-25.117h143.94
		c13.525,0,24.151,10.626,24.151,25.117V124.585z"/>
	<path style="fill:#F0F0F0;" d="M412.464,501.34H264.66c-14.491,0-26.083-11.592-26.083-26.083V124.585h199.97v350.672
		C438.547,489.747,426.955,501.34,412.464,501.34"/>
	<path style="fill:#E2E3E5;" d="M322.623,85.943H187.377V37.642c0-16.423,12.558-28.981,28.981-28.981h77.283
		c16.423,0,28.981,12.558,28.981,28.981V85.943z M206.698,66.623h96.604V37.642c0-5.796-3.864-9.66-9.66-9.66h-77.283
		c-5.796,0-9.66,3.864-9.66,9.66V66.623z"/>
	<path style="fill:#FFFFFF;" d="M255,124.585H61.792V91.74c0-14.491,10.626-25.117,25.117-25.117h143.94
		C244.374,66.623,255,77.249,255,91.74V124.585z"/>
	<path style="fill:#CCCCCC;" d="M428.887,124.585H235.679V91.74c0-14.491,10.626-25.117,25.117-25.117h143.94
		c13.525,0,24.151,10.626,24.151,25.117V124.585z"/>
	<path style="fill:#E2E3E5;" d="M399.906,124.585H90.774V91.74c0-14.491,10.626-25.117,25.117-25.117h259.864
		c13.525,0,24.151,10.626,24.151,25.117V124.585z"/>
	<path style="fill:#FFFFFF;" d="M255,501.34H107.196c-14.491,0-26.083-11.592-26.083-26.083V124.585h199.97v350.672
		C281.083,489.747,269.491,501.34,255,501.34"/>
	<path style="fill:#E0E0E0;" d="M383.483,501.34H235.679c-14.491,0-26.083-11.592-26.083-26.083V124.585h199.97v350.672
		C409.566,489.747,397.974,501.34,383.483,501.34"/>
	<path style="fill:#F0F0F0;" d="M354.502,501.34H136.177c-14.491,0-26.083-11.592-26.083-26.083V124.585h270.491v350.672
		C380.585,489.747,368.992,501.34,354.502,501.34"/>
	<g>
		<path style="fill:#B6B6B6;" d="M383.483,511H107.196c-19.321,0-35.743-16.423-35.743-35.743V240.509c0-5.796,3.864-9.66,9.66-9.66
			s9.66,3.864,9.66,9.66v234.747c0,9.66,7.728,16.423,16.423,16.423h275.321c9.66,0,16.423-7.728,16.423-16.423v-70.521
			c0-5.796,3.864-9.66,9.66-9.66c5.796,0,9.66,3.864,9.66,9.66v70.521C419.226,494.577,402.804,511,383.483,511z"/>
		<path style="fill:#B6B6B6;" d="M409.566,337.113c-5.796,0-9.66-3.864-9.66-9.66V134.245H90.774v28.981
			c0,5.796-3.864,9.66-9.66,9.66c-5.796,0-9.66-3.864-9.66-9.66v-38.642c0-5.796,3.864-9.66,9.66-9.66h328.453
			c5.796,0,9.66,3.864,9.66,9.66v202.868C419.226,333.249,415.362,337.113,409.566,337.113z"/>
		<path style="fill:#B6B6B6;" d="M428.887,134.245H61.792c-5.796,0-9.66-3.864-9.66-9.66V91.74
			c0-19.321,15.457-34.777,34.777-34.777h317.826c19.321,0,34.777,15.457,34.777,34.777v32.845
			C438.547,130.381,434.683,134.245,428.887,134.245z M71.453,114.925h347.774V91.74c0-8.694-6.762-15.457-15.457-15.457H86.909
			c-8.694,0-15.457,6.762-15.457,15.457V114.925z"/>
		<path style="fill:#B6B6B6;" d="M303.302,76.283H187.377c-5.796,0-9.66-3.864-9.66-9.66V27.981C177.717,11.558,190.275-1,206.698-1
			h77.283c16.423,0,28.981,12.558,28.981,28.981v38.642C312.962,72.419,309.098,76.283,303.302,76.283z M197.038,56.962h96.604
			V27.981c0-5.796-3.864-9.66-9.66-9.66h-77.283c-5.796,0-9.66,3.864-9.66,9.66V56.962z"/>
		<path style="fill:#B6B6B6;" d="M90.774,201.868c0,5.796-3.864,9.66-9.66,9.66c-5.796,0-9.66-3.864-9.66-9.66
			c0-5.796,3.864-9.66,9.66-9.66S90.774,196.072,90.774,201.868"/>
		<path style="fill:#B6B6B6;" d="M419.226,366.094c0,5.796-3.864,9.66-9.66,9.66s-9.66-3.864-9.66-9.66
			c0-5.796,3.864-9.66,9.66-9.66S419.226,360.298,419.226,366.094"/>
	</g>
</g>
<g>
</g>
<g>
</g>
<g>
</g>
<g>
</g>
<g>
</g>
<g>
</g>
<g>
</g>
<g>
</g>
<g>
</g>
<g>
</g>
<g>
</g>
<g>
</g>
<g>
</g>
<g>
</g>
<g>
</g>
</svg>
