<?xml version="1.0" encoding="iso-8859-1"?>
<!-- Generator: Adobe Illustrator 19.0.0, SVG Export Plug-In . SVG Version: 6.00 Build 0)  -->
<svg version="1.1" id="Layer_1" xmlns="http://www.w3.org/2000/svg" xmlns:xlink="http://www.w3.org/1999/xlink" x="0px" y="0px"
	 viewBox="0 0 512 512" style="enable-background:new 0 0 512 512;" xml:space="preserve">
<g transform="translate(1 1)">
	<path style="fill:#E2E3E5;" d="M497.759,237.345c0-19.421-15.89-35.31-35.31-35.31H383h-26.483h-31.779l8.828-40.607
		c7.062-30.897,5.297-68.855,0.883-95.338C330.917,39.607,306.2,8.71,281.483,8.71h-1.766
		c-21.186-0.883-29.131,22.952-29.131,52.083c0,143.007-70.621,141.241-70.621,141.241H162.31v282.483h132.414H383h35.31
		c19.421,0,35.31-15.89,35.31-35.31c0-19.421-15.89-35.31-35.31-35.31h26.483c19.421,0,35.31-15.89,35.31-35.31
		c0-19.421-15.89-35.31-35.31-35.31h26.483c19.421,0,35.31-15.89,35.31-35.31c0-22.069-14.124-30.014-35.31-33.545
		c-10.593-1.766-29.131-1.766-35.31-1.766h26.483C481.869,272.655,497.759,256.766,497.759,237.345"/>
	<polygon style="fill:#CCCCCC;" points="12.241,502.172 135.828,502.172 135.828,184.379 12.241,184.379 	"/>
	<polygon style="fill:#E2E3E5;" points="38.724,502.172 109.345,502.172 109.345,184.379 38.724,184.379 	"/>
	<polygon style="fill:#FFFFFF;" points="12.241,502.172 38.724,502.172 38.724,184.379 12.241,184.379 	"/>
	<path style="fill:#E0E0E0;" d="M109.345,422.724c0,19.421-15.89,35.31-35.31,35.31s-35.31-15.89-35.31-35.31
		c0-19.421,15.89-35.31,35.31-35.31S109.345,403.303,109.345,422.724"/>
	<path style="fill:#F0F0F0;" d="M56.379,388.297c-0.883,3.531-3.531,7.062-8.828,7.062v52.083c6.179,0,8.828,5.297,8.828,9.71
		c15.007-3.531,26.483-17.655,26.483-34.428C82.862,405.952,71.386,392.71,56.379,388.297"/>
	<path style="fill:#CCCCCC;" d="M471.276,237.345c0-19.421-15.89-35.31-35.31-35.31h-79.448h-26.483h-31.779l8.828-40.607
		c7.062-30.897,5.297-68.855,0.883-95.338C304.434,39.607,279.717,8.71,255,8.71h-1.766c-21.186-0.883-29.131,22.952-29.131,52.083
		c0,143.007-70.621,141.241-70.621,141.241h-17.655v282.483h132.414h88.276h35.31c19.421,0,35.31-15.89,35.31-35.31
		c0-19.421-15.89-35.31-35.31-35.31h26.483c19.421,0,35.31-15.89,35.31-35.31c0-19.421-15.89-35.31-35.31-35.31h26.483
		c19.421,0,35.31-15.89,35.31-35.31c0-22.069-14.124-30.014-35.31-33.545c-10.593-1.766-29.131-1.766-35.31-1.766h26.483
		C455.386,272.655,471.276,256.766,471.276,237.345"/>
	<path style="fill:#E2E3E5;" d="M444.793,237.345c0-19.421-15.89-35.31-35.31-35.31h-79.448h-26.483h-31.779l8.828-40.607
		c7.062-30.897,5.297-68.855,0.883-95.338c-4.414-27.366-15.007-49.434-39.724-49.434h-1.766c-21.186,0-7.062,15.007-7.062,44.138
		c0,143.007-79.448,141.241-79.448,141.241h-17.655v282.483h105.931h88.276h35.31c19.421,0,35.31-15.89,35.31-35.31
		c0-19.421-15.89-35.31-35.31-35.31h26.483c19.421,0,35.31-15.89,35.31-35.31c0-19.421-15.89-35.31-35.31-35.31h26.483
		c19.421,0,35.31-15.89,35.31-35.31c0-22.069-14.124-30.014-35.31-33.545c-10.593-1.766-29.131-1.766-35.31-1.766h26.483
		C428.903,272.655,444.793,256.766,444.793,237.345"/>
	<g>
		<path style="fill:#B6B6B6;" d="M135.828,511H12.241c-5.297,0-8.828-3.531-8.828-8.828V184.379c0-5.297,3.531-8.828,8.828-8.828
			h123.586c5.297,0,8.828,3.531,8.828,8.828v317.793C144.655,507.469,141.124,511,135.828,511z M21.069,493.345H127V193.207H21.069
			V493.345z"/>
		<path style="fill:#B6B6B6;" d="M74.034,466.862c-24.717,0-44.138-19.421-44.138-44.138c0-24.717,19.421-44.138,44.138-44.138
			s44.138,19.421,44.138,44.138C118.172,447.441,98.752,466.862,74.034,466.862z M74.034,396.241
			c-15.007,0-26.483,11.476-26.483,26.483c0,15.007,11.476,26.483,26.483,26.483s26.483-11.476,26.483-26.483
			C100.517,407.717,89.041,396.241,74.034,396.241z"/>
		<path style="fill:#B6B6B6;" d="M418.31,281.483H347.69c-5.297,0-8.828-3.531-8.828-8.828c0-5.297,3.531-8.828,8.828-8.828h70.621
			c5.297,0,8.828,3.531,8.828,8.828C427.138,277.952,423.607,281.483,418.31,281.483z"/>
		<path style="fill:#B6B6B6;" d="M418.31,352.103H347.69c-5.297,0-8.828-3.531-8.828-8.828s3.531-8.828,8.828-8.828h70.621
			c5.297,0,8.828,3.531,8.828,8.828S423.607,352.103,418.31,352.103z"/>
		<path style="fill:#B6B6B6;" d="M400.655,422.724h-70.621c-5.297,0-8.828-3.531-8.828-8.828s3.531-8.828,8.828-8.828h70.621
			c5.297,0,8.828,3.531,8.828,8.828S405.952,422.724,400.655,422.724z"/>
		<path style="fill:#B6B6B6;" d="M391.828,493.345h-256c-5.297,0-8.828-3.531-8.828-8.828V202.034c0-5.297,3.531-8.828,8.828-8.828
			h17.655c0.883,0,15.007,0,29.131-14.124c15.007-15.007,32.662-47.669,32.662-118.29C215.276,6.945,239.11-1,253.234-1H255
			c30.014,0,56.497,34.428,61.793,65.324c1.766,13.241,7.945,58.262-0.883,98.869l-7.062,30.014h127.117
			c24.717,0,44.138,19.421,44.138,44.138c0,13.241-6.179,24.717-15.007,33.545c11.476,5.297,23.834,15.007,23.834,37.076
			c0,21.186-15.89,39.724-36.193,43.255c6.179,7.945,9.71,16.772,9.71,27.366c0,21.186-15.89,39.724-36.193,43.255
			c6.179,7.945,9.71,16.772,9.71,27.366C435.966,473.924,416.545,493.345,391.828,493.345z M144.655,475.69h247.172
			c15.007,0,26.483-11.476,26.483-26.483c0-15.007-11.476-26.483-26.483-26.483c-5.297,0-8.828-3.531-8.828-8.828
			s3.531-8.828,8.828-8.828h26.483c15.007,0,26.483-11.476,26.483-26.483s-11.476-26.483-26.483-26.483
			c-5.297,0-8.828-3.531-8.828-8.828s3.531-8.828,8.828-8.828h26.483c15.007,0,26.483-11.476,26.483-26.483
			c0-12.359-4.414-21.186-27.365-24.717c-8.828-1.766-26.483-1.766-34.428-1.766c-5.297,0-8.828-3.531-8.828-8.828
			c0-5.297,3.531-8.828,8.828-8.828h26.483c15.007,0,26.483-11.476,26.483-26.483c0-15.007-11.476-26.483-26.483-26.483h-137.71
			c-2.648,0-5.297-0.883-7.062-3.531c-1.766-1.766-2.648-4.414-1.766-7.062l8.828-40.607c7.945-37.076,2.648-80.331,0.883-92.69
			C295.607,44.021,274.421,16.655,255,16.655h-1.766c-17.655,0-20.303,27.366-20.303,44.138c0,62.676-13.241,106.814-37.959,131.531
			c-20.303,18.538-40.607,18.538-41.49,18.538h-8.828V475.69z"/>
	</g>
</g>
<g>
</g>
<g>
</g>
<g>
</g>
<g>
</g>
<g>
</g>
<g>
</g>
<g>
</g>
<g>
</g>
<g>
</g>
<g>
</g>
<g>
</g>
<g>
</g>
<g>
</g>
<g>
</g>
<g>
</g>
</svg>
