<?xml version="1.0" encoding="iso-8859-1"?>
<!-- Generator: Adobe Illustrator 19.0.0, SVG Export Plug-In . SVG Version: 6.00 Build 0)  -->
<svg version="1.1" id="Layer_1" xmlns="http://www.w3.org/2000/svg" xmlns:xlink="http://www.w3.org/1999/xlink" x="0px" y="0px"
	 viewBox="0 0 507.586 507.586" style="enable-background:new 0 0 507.586 507.586;" xml:space="preserve">
<g transform="translate(1)">
	<path style="fill:#E0E0E0;" d="M301.345,178.317c-6.179-46.786-30.897-107.697-127.117-107.697S53.29,131.531,47.11,178.317
		c-3.531,25.6-1.766,52.083,3.531,77.683c30.014,139.476,102.4,223.338,120.055,240.993c1.766,1.766,5.297,1.766,7.062,0
		c17.655-18.538,90.041-101.517,119.172-241.876C302.228,230.4,304.876,203.917,301.345,178.317"/>
	<path style="fill:#F0F0F0;" d="M274.862,178.317c-5.297-46.786-27.366-107.697-113.876-107.697S52.407,131.531,47.11,178.317
		c-3.531,25.6-1.766,52.083,3.531,77.683c26.483,139.476,91.807,223.338,106.814,241.876c1.766,1.766,4.414,1.766,7.062,0
		c15.89-18.538,80.331-101.517,106.814-241.876C275.745,230.4,277.51,203.917,274.862,178.317"/>
	<path style="fill:#E0E0E0;" d="M248.379,190.676c0,41.49-33.545,74.152-74.152,74.152c-41.49,0-74.152-33.545-74.152-74.152
		s33.545-74.152,74.152-74.152C214.834,115.641,248.379,149.186,248.379,190.676"/>
	<path style="fill:#F0F0F0;" d="M221.014,190.676c0,41.49-27.366,74.152-60.91,74.152c-34.428,0-61.793-33.545-61.793-74.152
		s27.366-74.152,60.91-74.152C193.648,115.641,221.014,149.186,221.014,190.676"/>
	<path style="fill:#FFFFFF;" d="M47.11,178.317C53.29,131.531,78.007,70.621,174.228,70.621c2.648,0,4.414,0,7.062,0
		c-81.214,3.531-102.4,61.793-107.697,107.697c-3.531,25.6-1.766,52.083,3.531,77.683c24.717,132.414,84.745,214.51,104.166,238.345
		c-0.883,1.766-2.648,2.648-3.531,3.531c-1.766,1.766-5.297,1.766-7.062,0C153.041,479.338,80.655,395.476,50.641,256
		C45.345,230.4,43.579,203.917,47.11,178.317"/>
	<path style="fill:#E2E3E5;" d="M467.303,116.524C461.124,69.738,436.407,8.828,340.186,8.828
		c-68.855,0-103.283,27.366-118.29,61.793v0.883c78.566,8.828,99.752,63.559,105.048,106.814c3.531,25.6,1.766,52.083-3.531,77.683
		c-8.828,43.255-22.069,80.331-36.193,112.993v1.766c22.069,35.31,41.49,57.379,49.435,65.324c1.766,1.766,5.297,1.766,7.062,0
		c17.655-18.538,90.041-101.517,119.172-241.876C469.069,168.607,470.834,142.124,467.303,116.524"/>
	<path style="fill:#CCCCCC;" d="M440.821,116.524C434.641,69.738,409.924,8.828,313.703,8.828
		c-68.855,0-103.283,27.366-118.29,61.793v0.883c78.566,8.828,99.752,63.559,105.048,106.814c3.531,25.6,1.766,52.083-3.531,77.683
		c-8.828,43.255-22.069,80.331-36.193,112.993v1.766c22.069,35.31,41.49,57.379,49.435,65.324c1.766,1.766,5.297,1.766,7.062,0
		c17.655-18.538,90.041-101.517,119.172-241.876C442.586,168.607,444.352,142.124,440.821,116.524"/>
	<path style="fill:#E2E3E5;" d="M414.338,116.524c-5.297-46.786-25.6-107.697-108.579-107.697
		c-59.145,0-88.276,27.366-101.517,61.793v0.883c67.09,8.828,85.628,63.559,90.041,106.814c2.648,25.6,0.883,52.083-3.531,77.683
		c-7.945,43.255-19.421,80.331-31.779,112.993v1.766c18.538,35.31,35.31,57.379,42.372,65.324c1.766,1.766,4.414,1.766,6.179,0
		c15.007-18.538,76.8-101.517,102.4-241.876C416.103,168.607,417.869,142.124,414.338,116.524"/>
	<path style="fill:#E0E0E0;" d="M315.469,52.966c-28.248,0-53.848,12.359-67.09,35.31c35.31,22.069,48.552,61.793,52.966,92.69
		c0.883,7.062,1.766,13.241,1.766,20.303c4.414,0.883,7.945,0.883,12.359,0.883c41.49,0,74.152-33.545,74.152-74.152
		C389.621,86.51,356.076,52.966,315.469,52.966"/>
	<path style="fill:#F0F0F0;" d="M307.524,52.966c-21.186,0-40.607,12.359-50.317,35.31c26.483,22.069,36.193,61.793,39.724,92.69
		c0.883,7.062,0.883,13.241,0.883,20.303c2.648,0.883,6.179,0.883,9.71,0.883c30.897,0,55.614-33.545,55.614-74.152
		C363.138,86.51,338.421,52.966,307.524,52.966"/>
	<g>
		<path style="fill:#B6B6B6;" d="M174.228,507.586L174.228,507.586c-3.531,0-7.062-1.766-9.71-4.414
			c-22.069-22.069-92.69-105.931-121.821-245.407c-6.179-28.248-7.945-55.614-4.414-80.331
			c9.71-75.917,56.497-115.641,135.945-115.641c78.566,0,126.234,39.724,135.945,115.641l0,0
			c3.531,24.717,1.766,52.083-4.414,80.331c-29.131,139.476-100.634,223.338-121.821,245.407
			C181.29,505.821,177.759,507.586,174.228,507.586z M174.228,79.448c-69.738,0-109.462,33.545-118.29,99.752
			c-3.531,23.834-1.766,48.552,3.531,75.034c27.366,131.531,95.338,212.745,114.759,233.931
			c19.421-21.186,86.51-103.283,114.759-233.931c5.297-26.483,7.062-51.2,3.531-74.152l0,0
			C283.69,112.993,243.966,79.448,174.228,79.448z"/>
		<path style="fill:#B6B6B6;" d="M174.228,273.655c-45.903,0-82.979-37.076-82.979-82.979s37.076-82.979,82.979-82.979
			s82.979,37.076,82.979,82.979S220.131,273.655,174.228,273.655z M174.228,124.469c-36.193,0-65.324,29.131-65.324,65.324
			s29.131,65.324,65.324,65.324s65.324-29.131,65.324-65.324S210.421,124.469,174.228,124.469z"/>
		<path style="fill:#B6B6B6;" d="M315.469,210.979c-4.414,0-8.828,0-14.124-0.883c-4.414-0.883-7.062-4.414-7.062-8.828
			c0-7.062-0.883-13.241-1.766-19.421c-2.648-22.952-13.241-64.441-48.552-85.628c-4.414-2.648-5.297-7.945-2.648-11.476
			c13.241-25.6,40.607-40.607,74.152-40.607c45.903,0,82.979,37.076,82.979,82.979S361.372,210.979,315.469,210.979z
			 M311.055,193.324c1.766,0,2.648,0,4.414,0c36.193,0,65.324-29.131,65.324-65.324s-29.131-65.324-65.324-65.324
			c-22.952,0-43.255,8.828-54.731,23.834c35.31,26.483,45.903,69.738,49.434,93.572
			C310.172,183.614,311.055,188.028,311.055,193.324z"/>
		<path style="fill:#B6B6B6;" d="M313.703,445.793L313.703,445.793c-3.531,0-7.945-1.766-9.71-4.414
			c-7.945-7.945-28.248-30.897-50.317-67.09c-0.883-0.883-0.883-1.766-0.883-2.648v-1.766c0-1.766,0-3.531,0.883-5.297
			c15.89-35.31,28.248-72.386,36.193-111.228c5.297-26.483,7.062-51.2,3.531-74.152c-7.945-59.145-40.607-92.69-97.986-98.869
			c-3.531,0-7.062-3.531-7.945-7.062v-0.883c0-1.766,0-3.531,0.883-5.297C200.71,36.193,233.372,0,313.703,0
			c78.566,0,126.234,39.724,135.945,115.641l0,0c3.531,24.717,1.766,52.083-4.414,80.331
			c-29.131,139.476-99.752,223.338-120.938,245.407C321.648,444.028,318.117,445.793,313.703,445.793z M316.352,429.021
			L316.352,429.021L316.352,429.021z M270.448,368.11c18.538,29.131,35.31,49.434,43.255,58.262
			c19.421-21.186,86.51-103.283,114.759-233.931c5.297-26.483,7.062-51.2,3.531-74.152l0,0
			c-8.828-67.09-48.552-100.634-118.29-100.634c-52.083,0-87.393,15.89-105.931,46.786c59.145,10.593,93.572,49.434,102.4,112.993
			c3.531,24.717,1.766,52.083-4.414,80.331C297.814,295.724,285.455,332.8,270.448,368.11z"/>
	</g>
</g>
<g>
</g>
<g>
</g>
<g>
</g>
<g>
</g>
<g>
</g>
<g>
</g>
<g>
</g>
<g>
</g>
<g>
</g>
<g>
</g>
<g>
</g>
<g>
</g>
<g>
</g>
<g>
</g>
<g>
</g>
</svg>
