<?xml version="1.0" encoding="iso-8859-1"?>
<!-- Generator: Adobe Illustrator 19.0.0, SVG Export Plug-In . SVG Version: 6.00 Build 0)  -->
<svg version="1.1" id="Layer_1" xmlns="http://www.w3.org/2000/svg" xmlns:xlink="http://www.w3.org/1999/xlink" x="0px" y="0px"
	 viewBox="0 0 512 512" style="enable-background:new 0 0 512 512;" xml:space="preserve">
<g transform="translate(1 1)">
	<g>
		<path style="fill:#E2E3E5;" d="M401.286,447c0,30.171,24.686,54.857,54.857,54.857S511,477.171,511,447
			c0-30.171-24.686-54.857-54.857-54.857S401.286,416.829,401.286,447"/>
		<path style="fill:#E2E3E5;" d="M492.714,81.286H127c-5.486,0-9.143-3.657-9.143-9.143S121.514,63,127,63h365.714
			c5.486,0,9.143,3.657,9.143,9.143S498.2,81.286,492.714,81.286z"/>
		<path style="fill:#E2E3E5;" d="M383,465.286H17.286c-5.486,0-9.143-3.657-9.143-9.143c0-5.486,3.657-9.143,9.143-9.143H383
			c5.486,0,9.143,3.657,9.143,9.143C392.143,461.629,388.486,465.286,383,465.286z"/>
		<path style="fill:#E2E3E5;" d="M492.714,273.286H319c-5.486,0-9.143-3.657-9.143-9.143S313.514,255,319,255h173.714
			c5.486,0,9.143,3.657,9.143,9.143S498.2,273.286,492.714,273.286z"/>
		<path style="fill:#E2E3E5;" d="M200.143,273.286H17.286c-5.486,0-9.143-3.657-9.143-9.143S11.8,255,17.286,255h182.857
			c5.486,0,9.143,3.657,9.143,9.143S205.629,273.286,200.143,273.286z"/>
	</g>
	<path style="fill:#CCCCCC;" d="M8.143,63c0,30.171,24.686,54.857,54.857,54.857S117.857,93.171,117.857,63S93.171,8.143,63,8.143
		S8.143,32.829,8.143,63"/>
	<path style="fill:#E2E3E5;" d="M8.143,63c0,30.171,18.286,54.857,41.143,54.857S90.429,93.171,90.429,63S72.143,8.143,49.286,8.143
		S8.143,32.829,8.143,63"/>
	<path style="fill:#FFFFFF;" d="M63,117.857c2.743,0,5.486,0,8.229-0.914C51.114,113.286,35.571,90.429,35.571,63
		S51.114,12.714,71.229,9.057C68.486,8.143,65.743,8.143,63,8.143C32.829,8.143,8.143,32.829,8.143,63S32.829,117.857,63,117.857"/>
	<path style="fill:#CCCCCC;" d="M191,255c0,30.171,24.686,54.857,54.857,54.857s54.857-24.686,54.857-54.857
		s-24.686-54.857-54.857-54.857S191,224.829,191,255"/>
	<path style="fill:#E2E3E5;" d="M191,255c0,30.171,18.286,54.857,41.143,54.857s41.143-24.686,41.143-54.857
		S255,200.143,232.143,200.143S191,224.829,191,255"/>
	<path style="fill:#CCCCCC;" d="M373.857,447c0,30.171,24.686,54.857,54.857,54.857c30.171,0,54.857-24.686,54.857-54.857
		c0-30.171-24.686-54.857-54.857-54.857C398.543,392.143,373.857,416.829,373.857,447"/>
	<path style="fill:#E2E3E5;" d="M373.857,447c0,30.171,18.286,54.857,41.143,54.857s41.143-24.686,41.143-54.857
		c0-30.171-18.286-54.857-41.143-54.857S373.857,416.829,373.857,447"/>
	<g>
		<path style="fill:#B6B6B6;" d="M63,127C27.343,127-1,98.657-1,63S27.343-1,63-1s64,28.343,64,64S98.657,127,63,127z M63,17.286
			C37.4,17.286,17.286,37.4,17.286,63S37.4,108.714,63,108.714S108.714,88.6,108.714,63S88.6,17.286,63,17.286z"/>
		<path style="fill:#B6B6B6;" d="M247.686,319c-36.571,0-65.829-29.257-65.829-65.829s29.257-65.829,65.829-65.829
			s65.829,29.257,65.829,65.829S284.257,319,247.686,319z M247.686,205.629c-26.514,0-47.543,21.029-47.543,47.543
			s21.029,47.543,47.543,47.543s47.543-21.029,47.543-47.543S274.2,205.629,247.686,205.629z"/>
		<path style="fill:#B6B6B6;" d="M483.571,72.143H117.857c-5.486,0-9.143-3.657-9.143-9.143s3.657-9.143,9.143-9.143h365.714
			c5.486,0,9.143,3.657,9.143,9.143S489.057,72.143,483.571,72.143z"/>
		<path style="fill:#B6B6B6;" d="M428.714,511c-35.657,0-64-28.343-64-64s28.343-64,64-64s64,28.343,64,64S464.371,511,428.714,511z
			 M428.714,401.286C403.114,401.286,383,421.4,383,447c0,25.6,20.114,45.714,45.714,45.714c25.6,0,45.714-20.114,45.714-45.714
			C474.429,421.4,454.314,401.286,428.714,401.286z"/>
		<path style="fill:#B6B6B6;" d="M373.857,456.143H8.143C2.657,456.143-1,452.486-1,447c0-5.486,3.657-9.143,9.143-9.143h365.714
			c5.486,0,9.143,3.657,9.143,9.143C383,452.486,379.343,456.143,373.857,456.143z"/>
		<path style="fill:#B6B6B6;" d="M483.571,264.143H309.857c-5.486,0-9.143-3.657-9.143-9.143c0-5.486,3.657-9.143,9.143-9.143
			h173.714c5.486,0,9.143,3.657,9.143,9.143C492.714,260.486,489.057,264.143,483.571,264.143z"/>
		<path style="fill:#B6B6B6;" d="M191,264.143H8.143C2.657,264.143-1,260.486-1,255c0-5.486,3.657-9.143,9.143-9.143H191
			c5.486,0,9.143,3.657,9.143,9.143C200.143,260.486,196.486,264.143,191,264.143z"/>
	</g>
</g>
<g>
</g>
<g>
</g>
<g>
</g>
<g>
</g>
<g>
</g>
<g>
</g>
<g>
</g>
<g>
</g>
<g>
</g>
<g>
</g>
<g>
</g>
<g>
</g>
<g>
</g>
<g>
</g>
<g>
</g>
</svg>
