<?xml version="1.0" encoding="iso-8859-1"?>
<!-- Generator: Adobe Illustrator 19.0.0, SVG Export Plug-In . SVG Version: 6.00 Build 0)  -->
<svg version="1.1" id="Layer_1" xmlns="http://www.w3.org/2000/svg" xmlns:xlink="http://www.w3.org/1999/xlink" x="0px" y="0px"
	 viewBox="0 0 512 512" style="enable-background:new 0 0 512 512;" xml:space="preserve">
<g transform="translate(1 1)">
	<path style="fill:#E2E3E5;" d="M456.461,199.348H332.913v111.304h123.548c30.052,0,54.539-25.6,54.539-55.652
		S486.513,199.348,456.461,199.348"/>
	<path style="fill:#FFFFFF;" d="M64.67,310.652h123.548V199.348H64.67c-30.052,0-54.539,25.6-54.539,55.652
		S34.617,310.652,64.67,310.652"/>
	<path style="fill:#CCCCCC;" d="M423.07,199.348H299.522v111.304H423.07c30.052,0,54.539-25.6,54.539-55.652
		S453.122,199.348,423.07,199.348"/>
	<path style="fill:#E2E3E5;" d="M389.678,199.348H266.13h-44.522H98.061c-30.052,0-54.539,25.6-54.539,55.652
		s24.487,55.652,54.539,55.652h123.548h44.522h123.548c30.052,0,54.539-25.6,54.539-55.652S419.73,199.348,389.678,199.348"/>
	<path style="fill:#B6B6B6;" d="M423.07,321.783H64.67C29.052,321.783-1,291.73-1,255s30.052-66.783,65.67-66.783h357.287
		c36.73,0,66.783,30.052,66.783,66.783S458.687,321.783,423.07,321.783z M64.67,210.478c-23.374,0-43.409,20.035-43.409,44.522
		s20.035,44.522,43.409,44.522h357.287c24.487,0,44.522-20.035,44.522-44.522s-20.035-44.522-43.409-44.522H64.67z"/>
</g>
<g>
</g>
<g>
</g>
<g>
</g>
<g>
</g>
<g>
</g>
<g>
</g>
<g>
</g>
<g>
</g>
<g>
</g>
<g>
</g>
<g>
</g>
<g>
</g>
<g>
</g>
<g>
</g>
<g>
</g>
</svg>
