<?xml version="1.0" encoding="iso-8859-1"?>
<!-- Generator: Adobe Illustrator 19.0.0, SVG Export Plug-In . SVG Version: 6.00 Build 0)  -->
<svg version="1.1" id="Layer_1" xmlns="http://www.w3.org/2000/svg" xmlns:xlink="http://www.w3.org/1999/xlink" x="0px" y="0px"
	 viewBox="0 0 512 512" style="enable-background:new 0 0 512 512;" xml:space="preserve">
<g transform="translate(1 1)">
	<polygon style="fill:#E2E3E5;" points="511,96.28 511,495.64 244.76,495.64 244.76,14.36 429.08,14.36 	"/>
	<polygon style="fill:#CCCCCC;" points="480.28,96.28 480.28,495.64 214.04,495.64 214.04,14.36 398.36,14.36 	"/>
	<polygon style="fill:#FFFFFF;" points="275.48,96.28 275.48,495.64 9.24,495.64 9.24,14.36 193.56,14.36 	"/>
	<polygon style="fill:#E2E3E5;" points="449.56,96.28 449.56,495.64 39.96,495.64 39.96,14.36 367.64,14.36 	"/>
	<polygon style="fill:#E0E0E0;" points="101.4,178.2 367.64,178.2 367.64,14.36 101.4,14.36 	"/>
	<polygon style="fill:#F0F0F0;" points="101.4,178.2 336.92,178.2 336.92,14.36 101.4,14.36 	"/>
	<polygon style="fill:#E0E0E0;" points="80.92,495.64 398.36,495.64 398.36,280.6 80.92,280.6 	"/>
	<polygon style="fill:#CCCCCC;" points="285.72,137.24 326.68,137.24 326.68,55.32 285.72,55.32 	"/>
	<polygon style="fill:#F0F0F0;" points="80.92,495.64 367.64,495.64 367.64,280.6 80.92,280.6 	"/>
	<g>
		<path style="fill:#B6B6B6;" d="M480.28,505.88H9.24C3.096,505.88-1,501.784-1,495.64V14.36C-1,8.216,3.096,4.12,9.24,4.12h389.12
			c3.072,0,5.12,1.024,7.168,3.072l81.92,81.92c2.048,2.048,3.072,4.096,3.072,7.168v399.36
			C490.52,501.784,486.424,505.88,480.28,505.88z M19.48,485.4h450.56V100.376L394.264,24.6H19.48V485.4z"/>
		<path style="fill:#B6B6B6;" d="M367.64,188.44H101.4c-6.144,0-10.24-4.096-10.24-10.24V14.36c0-6.144,4.096-10.24,10.24-10.24
			h266.24c6.144,0,10.24,4.096,10.24,10.24V178.2C377.88,184.344,373.784,188.44,367.64,188.44z M111.64,167.96H357.4V24.6H111.64
			V167.96z"/>
		<path style="fill:#B6B6B6;" d="M398.36,505.88H80.92c-6.144,0-10.24-4.096-10.24-10.24V280.6c0-6.144,4.096-10.24,10.24-10.24
			h317.44c6.144,0,10.24,4.096,10.24,10.24v215.04C408.6,501.784,404.504,505.88,398.36,505.88z M91.16,485.4h296.96V290.84H91.16
			V485.4z"/>
		<path style="fill:#B6B6B6;" d="M203.8,342.04h-71.68c-6.144,0-10.24-4.096-10.24-10.24s4.096-10.24,10.24-10.24h71.68
			c6.144,0,10.24,4.096,10.24,10.24S209.944,342.04,203.8,342.04z"/>
		<path style="fill:#B6B6B6;" d="M234.52,383h-102.4c-6.144,0-10.24-4.096-10.24-10.24s4.096-10.24,10.24-10.24h102.4
			c6.144,0,10.24,4.096,10.24,10.24S240.664,383,234.52,383z"/>
	</g>
	<path style="fill:#B6B6B6;" d="M326.68,147.48h-40.96c-6.144,0-10.24-4.096-10.24-10.24V55.32c0-6.144,4.096-10.24,10.24-10.24
		h40.96c6.144,0,10.24,4.096,10.24,10.24v81.92C336.92,143.384,332.824,147.48,326.68,147.48z M295.96,127h20.48V65.56h-20.48V127z"
		/>
</g>
<g>
</g>
<g>
</g>
<g>
</g>
<g>
</g>
<g>
</g>
<g>
</g>
<g>
</g>
<g>
</g>
<g>
</g>
<g>
</g>
<g>
</g>
<g>
</g>
<g>
</g>
<g>
</g>
<g>
</g>
</svg>
