<?xml version="1.0" encoding="iso-8859-1"?>
<!-- Generator: Adobe Illustrator 19.0.0, SVG Export Plug-In . SVG Version: 6.00 Build 0)  -->
<svg version="1.1" id="Layer_1" xmlns="http://www.w3.org/2000/svg" xmlns:xlink="http://www.w3.org/1999/xlink" x="0px" y="0px"
	 viewBox="0 0 512 512" style="enable-background:new 0 0 512 512;" xml:space="preserve">
<g transform="translate(1 1)">
	<polygon style="fill:#FFFFFF;" points="365.345,325.621 488.931,325.621 488.931,7.828 365.345,7.828 	"/>
	<polygon style="fill:#E2E3E5;" points="391.828,325.621 462.448,325.621 462.448,7.828 391.828,7.828 	"/>
	<polygon style="fill:#CCCCCC;" points="462.448,325.621 488.931,325.621 488.931,7.828 462.448,7.828 	"/>
	<path style="fill:#E0E0E0;" d="M462.448,87.276c0,19.421-15.89,35.31-35.31,35.31c-19.421,0-35.31-15.89-35.31-35.31
		s15.89-35.31,35.31-35.31C446.559,51.966,462.448,67.855,462.448,87.276"/>
	<path style="fill:#F0F0F0;" d="M409.483,52.848c-0.883,3.531-3.531,7.062-8.828,7.062v52.083c6.179,0,8.828,5.297,8.828,9.71
		c15.007-3.531,26.483-17.655,26.483-34.428S424.49,57.262,409.483,52.848"/>
	<path style="fill:#FFFFFF;" d="M29.897,272.655c0,19.421,15.89,35.31,35.31,35.31h79.448h26.483h31.779l-8.828,40.607
		c-7.062,30.897-5.297,68.855-0.883,95.338c3.531,26.483,27.366,57.379,52.966,57.379h1.766c21.186,0,29.131-23.835,29.131-52.966
		c0-143.007,70.621-141.241,70.621-141.241h17.655v-281.6H232.931h-88.276h-35.31c-19.421,0-35.31,15.89-35.31,35.31
		s15.89,35.31,35.31,35.31H82.862c-19.421,0-35.31,15.89-35.31,35.31s15.89,35.31,35.31,35.31H56.379
		c-19.421,0-35.31,15.89-35.31,35.31c0,22.069,14.124,30.014,35.31,33.545c10.593,1.766,29.131,1.766,35.31,1.766H65.207
		C45.786,237.345,29.897,253.234,29.897,272.655"/>
	<path style="fill:#E2E3E5;" d="M56.379,272.655c0,19.421,15.89,35.31,35.31,35.31h79.448h26.483H229.4l-8.828,40.607
		c-7.062,30.897-5.297,68.855-0.883,95.338c3.531,26.483,15.007,48.552,39.724,48.552h1.766c21.186,0,7.062-15.007,7.062-44.138
		c0-143.007,79.448-141.241,79.448-141.241h17.655v-281.6H259.414h-88.276h-35.31c-19.421,0-35.31,15.89-35.31,35.31
		s15.89,35.31,35.31,35.31h-26.483c-19.421,0-35.31,15.89-35.31,35.31s15.89,35.31,35.31,35.31H82.862
		c-19.421,0-35.31,15.89-35.31,35.31c0,22.069,14.124,30.014,35.31,33.545c10.593,1.766,29.131,1.766,35.31,1.766H91.69
		C72.269,237.345,56.379,253.234,56.379,272.655"/>
	<g>
		<path style="fill:#B6B6B6;" d="M488.931,334.448H365.345c-5.297,0-8.828-3.531-8.828-8.828V7.828c0-5.297,3.531-8.828,8.828-8.828
			h123.586c5.297,0,8.828,3.531,8.828,8.828v317.793C497.759,330.917,494.228,334.448,488.931,334.448z M374.172,316.793h105.931
			V16.655H374.172V316.793z"/>
		<path style="fill:#B6B6B6;" d="M427.138,131.414c-24.717,0-44.138-19.421-44.138-44.138s19.421-44.138,44.138-44.138
			c24.717,0,44.138,19.421,44.138,44.138S451.855,131.414,427.138,131.414z M427.138,60.793c-15.007,0-26.483,11.476-26.483,26.483
			s11.476,26.483,26.483,26.483c15.007,0,26.483-11.476,26.483-26.483S442.145,60.793,427.138,60.793z"/>
		<path style="fill:#B6B6B6;" d="M153.483,246.172H82.862c-5.297,0-8.828-3.531-8.828-8.828s3.531-8.828,8.828-8.828h70.621
			c5.297,0,8.828,3.531,8.828,8.828S158.779,246.172,153.483,246.172z"/>
		<path style="fill:#B6B6B6;" d="M153.483,175.552H82.862c-5.297,0-8.828-3.531-8.828-8.828s3.531-8.828,8.828-8.828h70.621
			c5.297,0,8.828,3.531,8.828,8.828S158.779,175.552,153.483,175.552z"/>
		<path style="fill:#B6B6B6;" d="M171.138,104.931h-70.621c-5.297,0-8.828-3.531-8.828-8.828s3.531-8.828,8.828-8.828h70.621
			c5.297,0,8.828,3.531,8.828,8.828S176.434,104.931,171.138,104.931z"/>
		<path style="fill:#B6B6B6;" d="M247.938,511h-1.766c-30.014,0-56.497-34.428-61.793-65.324
			c-1.766-13.241-7.945-58.262,0.883-98.869l6.179-30.014H65.207c-24.717,0-44.138-19.421-44.138-44.138
			c0-13.241,6.179-24.717,15.007-33.545c-11.476-4.414-23.834-15.007-23.834-37.076c0-21.186,15.89-39.724,36.193-43.255
			c-6.179-7.945-9.71-16.772-9.71-27.366c0-21.186,15.89-39.724,36.193-43.255c-6.179-7.945-9.71-16.772-9.71-27.366
			c0-24.717,19.421-44.138,44.138-44.138h256c5.297,0,8.828,3.531,8.828,8.828v282.483c0,5.297-3.531,8.828-8.828,8.828H347.69
			c-0.883,0-15.007,0-29.131,14.124c-15.007,15.007-32.662,47.669-32.662,118.29C285.897,503.055,262.062,511,247.938,511z
			 M65.207,246.172c-15.007,0-26.483,11.476-26.483,26.483c0,15.007,11.476,26.483,26.483,26.483h137.71
			c2.648,0,5.297,0.883,7.062,3.531s2.648,4.414,1.766,7.062l-8.828,40.607c-7.945,37.076-2.648,80.331-0.883,92.69
			c3.531,22.952,24.717,50.317,44.138,50.317h1.766c17.655,0,20.303-27.366,20.303-44.138c0-62.676,13.241-106.814,37.959-131.531
			c20.303-18.538,40.607-18.538,41.49-18.538h8.828V34.31H109.345c-15.007,0-26.483,11.476-26.483,26.483
			s11.476,26.483,26.483,26.483c5.297,0,8.828,3.531,8.828,8.828s-3.531,8.828-8.828,8.828H82.862
			c-15.007,0-26.483,11.476-26.483,26.483s11.476,26.483,26.483,26.483c5.297,0,8.828,3.531,8.828,8.828s-3.531,8.828-8.828,8.828
			H56.379c-15.007,0-26.483,11.476-26.483,26.483c0,12.359,4.414,21.186,27.366,24.717c9.71,1.766,26.483,1.766,34.428,1.766
			c5.297,0,8.828,3.531,8.828,8.828s-3.531,8.828-8.828,8.828H65.207z"/>
	</g>
</g>
<g>
</g>
<g>
</g>
<g>
</g>
<g>
</g>
<g>
</g>
<g>
</g>
<g>
</g>
<g>
</g>
<g>
</g>
<g>
</g>
<g>
</g>
<g>
</g>
<g>
</g>
<g>
</g>
<g>
</g>
</svg>
